<svg width="24" height="24" viewBox="0 0 24 24" fill="none" xmlns="http://www.w3.org/2000/svg">
<g clip-path="url(#clip0_1_1093)">
<g clip-path="url(#clip1_1_1093)">
<path d="M21.7665 2.36952C21.4331 1.97085 20.8665 1.87118 20.4331 2.17019L18.4998 3.49909C17.5998 2.53563 16.3331 2.00407 14.9665 2.00407C12.2665 2.00407 10.0331 4.19676 10.0331 6.921C10.0331 7.31967 10.0665 7.68512 10.1665 8.05057C7.83313 7.55223 6.43313 5.85788 5.8998 2.80141C5.83313 2.40274 5.53313 2.10374 5.13313 2.00407C4.76646 1.90441 4.36646 2.07052 4.13313 2.36952C4.06646 2.43597 -1.43354 10.0771 6.53313 16.5555C5.76646 18.1834 3.46646 19.5788 2.56646 20.0439C2.13313 20.2432 1.93313 20.7083 2.03313 21.1735C2.13313 21.6386 2.53313 21.9376 2.9998 21.9376H4.73313C14.8665 21.9376 19.4665 16.921 19.5665 5.69177L21.6665 3.69842C22.0665 3.3662 22.0998 2.76819 21.7665 2.36952Z" fill="#505F79"/>
</g>
</g>
<defs>
<clipPath id="clip0_1_1093">
<rect width="20" height="20" fill="white" transform="translate(2 2)"/>
</clipPath>
<clipPath id="clip1_1_1093">
<rect width="20" height="19.9667" fill="white" transform="translate(2 1.97119)"/>
</clipPath>
</defs>
</svg>
