<svg width="392" height="409" viewBox="0 0 392 409" fill="none" xmlns="http://www.w3.org/2000/svg">
<path d="M227.393 87.2856L249.676 123.556C249.676 123.556 236.247 130.056 217.25 144.545C201.111 156.908 180.675 180.24 180.675 180.24L142.82 115.062C142.82 115.062 159.727 95.0409 184.85 78.1879C208.079 62.5263 212.913 63.52 212.913 63.52L227.393 87.2856Z" fill="white" stroke="#262626" stroke-width="0.496227" stroke-miterlimit="10"/>
<path d="M150.865 106.387L184.24 165.029C184.24 165.029 195.391 152.715 207.704 142.191C228.951 124.19 245.288 116.55 245.288 116.55L212.781 63.4458C212.913 63.5204 183.215 71.0855 150.865 106.387Z" fill="#262626"/>
<path d="M317.889 97.3153C317.889 97.3153 300.105 83.6883 263.252 97.1258C226.398 110.563 186.376 146.658 186.376 146.658L149.352 82.472C149.352 82.472 199.873 40.1335 233.831 33.4988C261.349 28.0937 275.754 35.5458 275.754 35.5458L317.889 97.3153Z" fill="white" stroke="#262626" stroke-width="0.496227" stroke-miterlimit="10"/>
<path d="M309.552 68.8441L265.149 162.934L140.985 147.347" stroke="#FF6B00" stroke-width="0.496227" stroke-miterlimit="10"/>
<path d="M140.573 198.801L208.505 179.971L217.858 213.714L149.926 232.544L140.573 198.801Z" fill="white" stroke="#FF6B00" stroke-width="0.496227" stroke-miterlimit="10"/>
<path d="M106.168 337.793L98.425 339.939C96.4013 339.055 94.303 338.304 92.2508 337.317C91.9871 337.168 91.752 337.122 91.4883 336.973L89.0285 328.098L102.45 324.378L106.168 337.793Z" fill="white" stroke="#FF6B00" stroke-width="0.496227" stroke-miterlimit="10"/>
<path d="M123.306 347.486L136.728 343.766L133.009 330.351L119.588 334.071L115.87 320.657L129.291 316.937L125.573 303.522L112.151 307.242L98.7302 310.962L95.0119 297.548L108.433 293.828L104.715 280.413L91.2936 284.133L95.0119 297.548L81.5907 301.268L68.1696 304.988L64.4513 291.573L51.0301 295.293L37.6089 299.014L41.3272 312.428L45.0455 325.843L31.6243 329.563L27.906 316.148L21.9181 317.808L15.6543 227.428C15.6543 227.428 24.5459 214.185 48.4363 213.341C84.2202 212.089 101.783 231.334 131.397 237.904C150.009 242.079 154.137 233.712 154.137 233.712L166.213 311.369C166.213 311.369 197.362 304.625 215.147 325.474C225.702 337.883 209.837 350.836 193.422 355.386C176.284 360.136 156.015 357.199 123.564 348.415L123.306 347.486V347.486Z" fill="white" stroke="#FF6B00" stroke-width="0.496227" stroke-miterlimit="10"/>
<path d="M123.307 347.488L121.656 347.945C117.075 346.66 112.436 345.167 107.741 343.469L106.168 337.793L119.589 334.073L123.307 347.488Z" fill="white" stroke="#FF6B00" stroke-width="0.496227" stroke-miterlimit="10"/>
<path d="M89.0286 328.097L75.9172 331.731C75.8139 331.759 75.6821 331.685 75.5789 331.713L71.8892 318.402L85.3103 314.682L89.0286 328.097Z" fill="white" stroke="#FF6B00" stroke-width="0.496227" stroke-miterlimit="10"/>
<path d="M60.6423 329.964C55.4182 329.968 50.8358 330.682 46.6776 331.724L45.0473 325.842L58.4685 322.122L60.6423 329.964Z" fill="white" stroke="#FF6B00" stroke-width="0.496227" stroke-miterlimit="10"/>
<path d="M25.021 345.838L23.9886 346.124L22.9545 331.966L31.6267 329.562L33.8005 337.404C29.3772 340.297 26.3931 343.569 25.021 345.838Z" fill="white" stroke="#FF6B00" stroke-width="0.496227" stroke-miterlimit="10"/>
<path d="M54.7483 308.709L68.1694 304.989L71.8877 318.403L58.4666 322.123L54.7483 308.709Z" fill="white" stroke="#FF6B00" stroke-width="0.496227" stroke-miterlimit="10"/>
<path d="M142.498 239.047L154.855 332.961C154.855 332.961 177.351 317.058 207.436 321.72L190.678 231.582C190.678 231.582 176.39 220.541 154.269 233.784C154.269 233.784 149.706 239.383 142.498 239.047Z" fill="#262626"/>
<path d="M154.272 233.785L151.419 211.464C151.419 211.464 184.741 205.339 201.087 225.809L218.128 330.203C218.128 330.203 216.372 323.467 196.231 317.383C184.105 313.743 167.466 318.689 167.466 318.689L154.272 233.785Z" fill="white" stroke="#FF6B00" stroke-width="0.496227" stroke-miterlimit="10"/>
<path d="M72.2171 215.303C72.2171 215.303 59.233 208.568 42.7942 214.236C26.3554 219.903 -13.3175 256.457 -13.3175 256.457L-14.5641 327.362C-14.5641 327.362 33.857 286.272 49.8068 282.851C65.0054 279.527 77.9608 286.159 77.9608 286.159L72.2171 215.303Z" fill="#262626"/>
<path d="M59.5555 197.701C59.5555 197.701 47.2978 193.987 30.1327 196.634C14.6767 199.029 -25.979 238.855 -25.979 238.855L-27.2256 309.76C-27.2256 309.76 21.6817 270.425 37.1453 265.25C52.609 260.075 65.0147 265.525 65.0147 265.525L59.5555 197.701Z" fill="white" stroke="#FF6B00" stroke-width="0.496227" stroke-miterlimit="10"/>
<path d="M18.8047 201.885L19.0355 233.601L-11.8614 258.499L-11.6842 225.448L10.8762 206.972L18.8047 201.885Z" fill="#262626"/>
<path d="M54.3397 337.71L89.0283 328.095L95.1206 350.074L60.432 359.689L54.3397 337.71Z" fill="white" stroke="#FF6B00" stroke-width="0.496227" stroke-miterlimit="10"/>
<path d="M86.3046 341.246L82.499 344.731L82.2548 343.85L85.1763 341.292L85.161 341.237L81.3394 340.548L81.0953 339.667L86.152 340.695L86.3046 341.246ZM76.3036 338.742L77.0467 338.537L81.6556 346.343L80.9125 346.549L76.3036 338.742ZM72.9201 347.623L68.9831 345.395L71.2113 341.458L71.8879 341.841L70.3094 344.62L75.9585 343.054L76.1683 343.811L70.5192 345.377L73.305 346.953L72.9201 347.623ZM62.7906 347.764L62.638 347.213L66.4436 343.728L66.6878 344.609L63.7663 347.167L63.7816 347.222L67.6032 347.911L67.8474 348.792L62.7906 347.764Z" fill="black"/>
<path d="M10.8279 199.986L10.9554 231.73L-19.9416 256.628L-19.7545 226.019L10.8279 199.986Z" fill="white" stroke="#262626" stroke-width="0.496227" stroke-miterlimit="10"/>
<path d="M55.1848 173.911L52.3779 144.132L83.3035 119.337L85.7671 147.878L55.1848 173.911Z" fill="white" stroke="#262626" stroke-width="0.496227" stroke-miterlimit="10"/>
<path d="M69.0766 151.839C67.138 152.376 65.1311 151.241 64.594 149.304C64.0569 147.366 65.1931 145.359 67.1317 144.822C69.0703 144.285 71.0772 145.42 71.6143 147.358C72.1514 149.295 71.0153 151.302 69.0766 151.839Z" fill="white" stroke="#262626" stroke-width="0.496227" stroke-miterlimit="10"/>
<path d="M-3.79272 237.486L-3.79462 248.709L-14.6961 257.509L-14.5798 246.699L-3.79272 237.486Z" fill="white" stroke="#262626" stroke-width="0.496227" stroke-miterlimit="10"/>
<path d="M35.7456 254.194L35.8366 272.17L18.9299 282.967L19.0104 265.611L35.7456 254.194Z" fill="white" stroke="#262626" stroke-width="0.496227" stroke-miterlimit="10"/>
<path d="M92.5112 266.461C85.0418 268.531 77.3092 264.157 75.2398 256.692C73.1705 249.226 77.548 241.495 85.0173 239.425C92.4867 237.355 100.219 241.728 102.289 249.194C104.358 256.66 99.9805 264.39 92.5112 266.461Z" fill="#262626"/>
<path d="M88.9528 260.446C81.4835 262.517 73.7509 258.143 71.6815 250.677C69.6122 243.211 73.9897 235.481 81.459 233.411C88.9283 231.34 96.661 235.714 98.7303 243.18C100.8 250.645 96.4221 258.376 88.9528 260.446Z" fill="white" stroke="#262626" stroke-width="0.496227" stroke-miterlimit="10"/>
<path d="M85.2075 246.929L139.096 151.765" stroke="#FF6B00" stroke-width="0.496227" stroke-miterlimit="10"/>
<path d="M144.733 160.868C137.263 162.938 129.531 158.565 127.461 151.099C125.392 143.633 129.769 135.903 137.239 133.832C144.708 131.762 152.441 136.136 154.51 143.602C156.579 151.067 152.202 158.798 144.733 160.868Z" fill="white" stroke="#FF6B00" stroke-width="0.496227" stroke-miterlimit="10"/>
<path d="M135.821 134.337L138.101 128.927L151.256 145.504L141.289 164.49L138.842 161.279" stroke="#FF6B00" stroke-width="0.496227" stroke-miterlimit="10"/>
<path d="M205.25 194.624L200.385 199.079L200.073 197.954L203.807 194.683L203.788 194.613L198.902 193.731L198.59 192.606L205.055 193.92L205.25 194.624ZM193.601 201.263L199.23 199.703L199.498 200.67L193.869 202.23L193.601 201.263ZM188.001 202.815L193.63 201.255L193.899 202.222L188.269 203.783L188.001 202.815ZM182.401 204.367L188.031 202.807L188.299 203.774L182.669 205.335L182.401 204.367ZM175.665 196.08L176.615 195.817L182.507 205.797L181.557 206.06L175.665 196.08ZM172.387 207.143L178.016 205.583L178.285 206.55L172.655 208.111L172.387 207.143ZM164.608 205.889L164.413 205.186L169.277 200.731L169.59 201.856L165.855 205.127L165.874 205.197L170.76 206.079L171.072 207.204L164.608 205.889Z" fill="black"/>
<path d="M266.048 166.575C263.71 167.223 261.29 165.854 260.642 163.518C259.994 161.181 261.364 158.762 263.702 158.114C266.04 157.466 268.46 158.835 269.108 161.171C269.755 163.508 268.385 165.927 266.048 166.575Z" fill="white" stroke="#F55800" stroke-width="0.496227" stroke-miterlimit="10"/>
<path d="M313.528 83.1895C304.234 85.7656 294.613 80.3234 292.038 71.0341C289.463 61.7447 294.91 52.1258 304.204 49.5497C313.498 46.9736 323.119 52.4158 325.694 61.7051C328.269 70.9945 322.822 80.6134 313.528 83.1895Z" fill="white" stroke="#F55800" stroke-width="0.496227" stroke-miterlimit="10"/>
<path d="M86.1947 248.873C84.8263 249.253 83.4096 248.451 83.0305 247.084C82.6514 245.716 83.4534 244.299 84.8218 243.92C86.1902 243.541 87.6069 244.342 87.986 245.71C88.3651 247.078 87.5632 248.494 86.1947 248.873Z" fill="white" stroke="#FF6B00" stroke-width="0.496227" stroke-miterlimit="10"/>
<path d="M294.478 56.5771C294.478 56.5771 296.776 67.2741 306.796 72.9416C316.816 78.6092 323.906 75.3105 323.906 75.3105" fill="white"/>
<path d="M294.478 56.5771C294.478 56.5771 296.776 67.2741 306.796 72.9416C316.816 78.6092 323.906 75.3105 323.906 75.3105" stroke="#F55800" stroke-width="0.496227" stroke-miterlimit="10"/>
<path d="M184.941 105.389L198.741 100.23L197.083 85.0225L211.314 79.4112L213.03 94.8254L227.834 89.2774L229.589 105.236L214.699 110.475L200.222 115.599L201.834 131.042L187.891 135.684L189.371 151.053L175.858 155.243L174.463 140.184L172.994 125.257L186.364 120.551L184.941 105.389Z" fill="#666666"/>
<path d="M183.471 90.4639L181.898 75.5656L195.556 69.8909L197.082 85.0242L183.471 90.4639Z" fill="#262626"/>
<path d="M171.55 110.433L170.138 95.7128L183.469 90.4622L184.938 105.389L171.55 110.433Z" fill="#262626"/>
<path d="M157.4 100.691L156.074 86.2798L168.728 80.9945L170.14 95.7151L157.4 100.691Z" fill="#262626"/>
<path d="M158.755 115.205L171.552 110.436L172.993 125.26L160.036 129.851L147.594 134.3L146.268 119.889L144.97 105.581L157.4 100.691L158.755 115.205Z" fill="#FF6B00"/>
<path d="M226.134 73.5249L211.312 79.4111L209.7 63.9682L195.554 69.8892L194.056 54.859L208.144 48.7317L222.72 42.3582L224.361 57.9042L239.613 51.5653L255.456 44.9515L257.401 61.1913L241.472 67.4955L243.256 83.5575L227.832 89.2773L226.134 73.5249Z" fill="#F55800"/>
<path d="M259.373 77.5337L261.271 94.0085L245.171 99.6936L243.255 83.557L259.373 77.5337Z" fill="#262626"/>
<path d="M236.01 20.1179L237.783 35.7386L222.72 42.3584L221.004 26.9442L236.01 20.1179Z" fill="#262626"/>
<path d="M181.895 75.5665L168.725 80.9949L167.37 66.4807L166.044 52.0697L178.968 46.154L192.482 39.9634L194.055 54.8617L180.454 60.7427L181.895 75.5665Z" fill="#262626"/>
<path d="M142.488 77.3763L154.775 71.9705L156.072 86.2782L143.728 91.4777L142.488 77.3763Z" fill="#262626"/>
<path d="M133.056 110.324L131.844 96.326L143.729 91.476L144.97 105.577L133.056 110.324Z" fill="#262626"/>
<path d="M245.172 99.6935L247.013 115.962L231.343 121.194L229.587 105.235L245.172 99.6935Z" fill="#262626"/>
<path d="M68.1068 148.327L296.454 215.707" stroke="#FF6B00" stroke-width="0.496227" stroke-miterlimit="10"/>
<path d="M304.164 191.788L304.32 223.635L273.423 248.534L273.61 217.925L304.164 191.788Z" fill="white" stroke="#666666" stroke-width="0.496227" stroke-miterlimit="10"/>
</svg>
